<?xml version="1.0" standalone="no"?>
<!DOCTYPE svg PUBLIC "-//W3C//DTD SVG 20010904//EN"
 "http://www.w3.org/TR/2001/REC-SVG-20010904/DTD/svg10.dtd">
<svg version="1.0" xmlns="http://www.w3.org/2000/svg"
 width="263.000000pt" height="263.000000pt" viewBox="0 0 263.000000 263.000000"
 preserveAspectRatio="xMidYMid meet">
<metadata>
Created by potrace 1.14, written by Peter Selinger 2001-2017
</metadata>
<g transform="translate(0.000000,263.000000) scale(0.100000,-0.100000)"
fill="#000000" stroke="none">
<path d="M0 1315 l0 -1315 1315 0 1315 0 0 1315 0 1315 -1315 0 -1315 0 0
-1315z m1410 1197 c25 -12 81 -42 125 -67 106 -59 257 -118 397 -154 147 -37
159 -43 214 -93 57 -53 67 -72 119 -234 50 -152 98 -255 190 -409 112 -187
113 -235 10 -430 l-68 -127 39 -79 c58 -121 47 -149 -61 -149 l-62 0 -10 -37
c-6 -21 -17 -63 -23 -93 -18 -80 -53 -142 -106 -189 -39 -34 -69 -48 -188 -85
-151 -48 -306 -119 -417 -191 -124 -80 -146 -89 -229 -89 -82 -1 -73 -4 -280
106 -115 62 -260 116 -385 143 -146 32 -215 79 -264 177 -17 34 -31 69 -31 80
0 21 -4 22 -31 7 -51 -27 -79 21 -79 134 l0 70 -80 118 c-44 65 -80 126 -80
136 0 11 6 28 14 38 11 16 10 25 -11 71 -17 38 -24 70 -24 116 0 82 7 103 75
223 72 128 131 278 168 430 33 134 59 187 118 238 43 36 66 46 223 96 124 39
241 94 379 177 60 36 125 72 146 79 51 20 156 14 212 -13z m1112 -1779 c22
-20 23 -41 1 -65 -32 -36 -83 -17 -83 32 0 48 45 67 82 33z"/>
<path d="M1149 2330 c-161 -27 -322 -96 -447 -190 -195 -147 -323 -337 -388
-575 -24 -87 -27 -119 -28 -250 0 -123 4 -166 22 -238 29 -117 31 -120 61 -96
l23 19 -21 88 c-29 124 -34 202 -21 321 25 228 117 422 277 584 254 257 631
349 978 240 257 -81 464 -263 582 -509 69 -145 85 -223 87 -400 l1 -151 27
-16 27 -15 7 55 c11 88 -2 280 -24 365 -91 340 -342 614 -667 725 -140 47
-357 66 -496 43z"/>
<path d="M1373 1948 c-6 -7 -12 -19 -14 -26 -3 -10 -11 -8 -31 7 -14 12 -30
21 -35 21 -16 0 -363 -356 -363 -373 0 -9 9 -21 21 -28 18 -9 25 -7 48 15 15
15 30 23 34 19 4 -3 7 -62 7 -130 l0 -125 30 -29 30 -30 202 6 c209 7 251 14
269 47 6 11 10 73 9 141 -1 67 -1 126 -1 130 1 5 15 -2 32 -14 24 -17 36 -20
48 -12 31 19 21 40 -47 105 l-69 65 -7 103 c-4 57 -9 107 -12 112 -8 13 -140
9 -151 -4z m87 -94 c0 -45 -24 -42 -28 4 -2 24 1 32 12 32 12 0 16 -10 16 -36z
m-46 -96 l89 -83 1 -160 1 -160 -42 -3 -41 -3 -7 88 c-3 48 -7 95 -8 103 -3
19 -171 27 -193 9 -10 -8 -14 -37 -14 -105 l0 -93 -34 -7 c-19 -3 -39 -3 -44
0 -5 3 -12 76 -15 163 l-6 158 96 97 c75 75 100 95 112 88 9 -5 56 -47 105
-92z m-74 -338 l0 -70 -30 0 c-28 0 -30 2 -30 39 0 21 -3 53 -6 70 -6 30 -6
31 30 31 l36 0 0 -70z"/>
<path d="M2271 979 c0 -4 -12 -32 -26 -63 -14 -31 -21 -56 -15 -56 13 0 52 91
47 110 -3 8 -5 12 -6 9z"/>
<path d="M415 867 c-18 -28 -18 -29 5 -70 30 -55 82 -127 90 -127 4 0 12 12
19 26 10 23 7 33 -31 94 -24 37 -48 76 -54 86 -10 17 -12 16 -29 -9z"/>
<path d="M1975 609 c-65 -66 -193 -151 -283 -188 -158 -65 -318 -89 -482 -71
-203 22 -405 112 -548 244 l-43 39 -22 -22 -22 -23 45 -39 c372 -326 881 -357
1285 -78 39 26 95 73 125 104 53 54 54 57 36 71 -29 21 -37 18 -91 -37z"/>
</g>
</svg>
