<svg version="1.0" xmlns="http://www.w3.org/2000/svg" width="350.667" height="350.667" viewBox="0 0 263 263"><path d="M0 131.5V263h263V0H0v131.5zM141 11.8c2.5 1.2 8.1 4.2 12.5 6.7 10.6 5.9 25.7 11.8 39.7 15.4 14.7 3.7 15.9 4.3 21.4 9.3 5.7 5.3 6.7 7.2 11.9 23.4 5 15.2 9.8 25.5 19 40.9 11.2 18.7 11.3 23.5 1 43l-6.8 12.7 3.9 7.9c5.8 12.1 4.7 14.9-6.1 14.9h-6.2l-1 3.7c-.6 2.1-1.7 6.3-2.3 9.3-1.8 8-5.3 14.2-10.6 18.9-3.9 3.4-6.9 4.8-18.8 8.5-15.1 4.8-30.6 11.9-41.7 19.1-12.4 8-14.6 8.9-22.9 8.9-8.2.1-7.3.4-28-10.6-11.5-6.2-26-11.6-38.5-14.3-14.6-3.2-21.5-7.9-26.4-17.7-1.7-3.4-3.1-6.9-3.1-8 0-2.1-.4-2.2-3.1-.7-5.1 2.7-7.9-2.1-7.9-13.4v-7l-8-11.8c-4.4-6.5-8-12.6-8-13.6 0-1.1.6-2.8 1.4-3.8 1.1-1.6 1-2.5-1.1-7.1-1.7-3.8-2.4-7-2.4-11.6 0-8.2.7-10.3 7.5-22.3 7.2-12.8 13.1-27.8 16.8-43 3.3-13.4 5.9-18.7 11.8-23.8 4.3-3.6 6.6-4.6 22.3-9.6 12.4-3.9 24.1-9.4 37.9-17.7 6-3.6 12.5-7.2 14.6-7.9 5.1-2 15.6-1.4 21.2 1.3zm111.2 177.9c2.2 2 2.3 4.1.1 6.5-3.2 3.6-8.3 1.7-8.3-3.2 0-4.8 4.5-6.7 8.2-3.3z"/><path d="M114.9 30c-16.1 2.7-32.2 9.6-44.7 19-19.5 14.7-32.3 33.7-38.8 57.5-2.4 8.7-2.7 11.9-2.8 25 0 12.3.4 16.6 2.2 23.8 2.9 11.7 3.1 12 6.1 9.6l2.3-1.9-2.1-8.8c-2.9-12.4-3.4-20.2-2.1-32.1 2.5-22.8 11.7-42.2 27.7-58.4 25.4-25.7 63.1-34.9 97.8-24 25.7 8.1 46.4 26.3 58.2 50.9 6.9 14.5 8.5 22.3 8.7 40l.1 15.1 2.7 1.6 2.7 1.5.7-5.5c1.1-8.8-.2-28-2.4-36.5-9.1-34-34.2-61.4-66.7-72.5-14-4.7-35.7-6.6-49.6-4.3z"/><path d="M137.3 68.2c-.6.7-1.2 1.9-1.4 2.6-.3 1-1.1.8-3.1-.7-1.4-1.2-3-2.1-3.5-2.1-1.6 0-36.3 35.6-36.3 37.3 0 .9.9 2.1 2.1 2.8 1.8.9 2.5.7 4.8-1.5 1.5-1.5 3-2.3 3.4-1.9.4.3.7 6.2.7 13v12.5l3 2.9 3 3 20.2-.6c20.9-.7 25.1-1.4 26.9-4.7.6-1.1 1-7.3.9-14.1-.1-6.7-.1-12.6-.1-13 .1-.5 1.5.2 3.2 1.4 2.4 1.7 3.6 2 4.8 1.2 3.1-1.9 2.1-4-4.7-10.5l-6.9-6.5-.7-10.3c-.4-5.7-.9-10.7-1.2-11.2-.8-1.3-14-.9-15.1.4zm8.7 9.4c0 4.5-2.4 4.2-2.8-.4-.2-2.4.1-3.2 1.2-3.2 1.2 0 1.6 1 1.6 3.6zm-4.6 9.6l8.9 8.3.1 16 .1 16-4.2.3-4.1.3-.7-8.8c-.3-4.8-.7-9.5-.8-10.3-.3-1.9-17.1-2.7-19.3-.9-1 .8-1.4 3.7-1.4 10.5v9.3l-3.4.7c-1.9.3-3.9.3-4.4 0-.5-.3-1.2-7.6-1.5-16.3l-.6-15.8 9.6-9.7c7.5-7.5 10-9.5 11.2-8.8.9.5 5.6 4.7 10.5 9.2zM134 121v7h-3c-2.8 0-3-.2-3-3.9 0-2.1-.3-5.3-.6-7-.6-3-.6-3.1 3-3.1h3.6v7zm93.1 44.1c0 .4-1.2 3.2-2.6 6.3-1.4 3.1-2.1 5.6-1.5 5.6 1.3 0 5.2-9.1 4.7-11-.3-.8-.5-1.2-.6-.9zM41.5 176.3c-1.8 2.8-1.8 2.9.5 7 3 5.5 8.2 12.7 9 12.7.4 0 1.2-1.2 1.9-2.6 1-2.3.7-3.3-3.1-9.4-2.4-3.7-4.8-7.6-5.4-8.6-1-1.7-1.2-1.6-2.9.9zm156 25.8c-6.5 6.6-19.3 15.1-28.3 18.8-15.8 6.5-31.8 8.9-48.2 7.1-20.3-2.2-40.5-11.2-54.8-24.4l-4.3-3.9-2.2 2.2-2.2 2.3 4.5 3.9c37.2 32.6 88.1 35.7 128.5 7.8 3.9-2.6 9.5-7.3 12.5-10.4 5.3-5.4 5.4-5.7 3.6-7.1-2.9-2.1-3.7-1.8-9.1 3.7z"/></svg>